<svg width="79" height="99" viewBox="0 0 79 99" fill="none" xmlns="http://www.w3.org/2000/svg">
<path d="M5.5 30L39.5 98.5L73 30L39.5 53.5L5.5 30Z" fill="url(#paint0_linear_370_247)"/>
<path d="M79 51L55 77.5L73.5 38L79 51Z" fill="url(#paint1_linear_370_247)"/>
<path d="M0 51L24 77.5L5.5 38L0 51Z" fill="url(#paint2_linear_370_247)"/>
<path d="M14.5 27.5L39.5 46L64.5 27.5L39.5 15.5L14.5 27.5Z" fill="url(#paint3_linear_370_247)"/>
<path d="M30.5 14.5L12 23.5L19 0L30.5 14.5Z" fill="url(#paint4_linear_370_247)"/>
<path d="M48 14.5L66.5 23.5L59.5 0L48 14.5Z" fill="url(#paint5_linear_370_247)"/>
<defs>
<linearGradient id="paint0_linear_370_247" x1="39.25" y1="30" x2="39.25" y2="98.5" gradientUnits="userSpaceOnUse">
<stop stop-color="#0585E5"/>
<stop offset="0.504808" stop-color="#0052CA"/>
<stop offset="1" stop-color="#EFEFF0"/>
</linearGradient>
<linearGradient id="paint1_linear_370_247" x1="67" y1="38" x2="67" y2="77.5" gradientUnits="userSpaceOnUse">
<stop stop-color="#0585E5"/>
<stop offset="0.504808" stop-color="#0052CA"/>
<stop offset="1" stop-color="#EFEFF0"/>
</linearGradient>
<linearGradient id="paint2_linear_370_247" x1="12" y1="38" x2="12" y2="77.5" gradientUnits="userSpaceOnUse">
<stop stop-color="#0585E5"/>
<stop offset="0.504808" stop-color="#0052CA"/>
<stop offset="1" stop-color="#EFEFF0"/>
</linearGradient>
<linearGradient id="paint3_linear_370_247" x1="39.5" y1="15.5" x2="39.5" y2="46" gradientUnits="userSpaceOnUse">
<stop stop-color="#0585E5"/>
<stop offset="0.504808" stop-color="#0052CA"/>
<stop offset="1" stop-color="#EFEFF0"/>
</linearGradient>
<linearGradient id="paint4_linear_370_247" x1="21.25" y1="0" x2="21.25" y2="23.5" gradientUnits="userSpaceOnUse">
<stop stop-color="#0585E5"/>
<stop offset="0.504808" stop-color="#0052CA"/>
<stop offset="1" stop-color="#EFEFF0"/>
</linearGradient>
<linearGradient id="paint5_linear_370_247" x1="57.25" y1="0" x2="57.25" y2="23.5" gradientUnits="userSpaceOnUse">
<stop stop-color="#0585E5"/>
<stop offset="0.504808" stop-color="#0052CA"/>
<stop offset="1" stop-color="#EFEFF0"/>
</linearGradient>
</defs>
</svg>
